<svg width="192" height="192" viewBox="0 0 192 192" version="1.1" xmlns="http://www.w3.org/2000/svg" xmlns:xlink="http://www.w3.org/1999/xlink">
<title>bt-clear</title>
<desc>Created using Figma</desc>
<g id="Canvas" transform="matrix(3 0 0 3 -6045 -1656)">
<g id="bt-clear">
<g id="Clear">
<use xlink:href="#path0_fill" transform="translate(2015 592)" fill="#545454"/>
</g>
<g id="icon-decline">
<g id="Line">
<use xlink:href="#path1_stroke" transform="matrix(-0.707107 0.707107 -0.707107 -0.707107 2056 567)" fill="#545454"/>
</g>
<g id="Line 2">
<use xlink:href="#path2_stroke" transform="matrix(0.707107 0.707107 -0.707107 0.707107 2038 567)" fill="#545454"/>
</g>
</g>
</g>
</g>
<defs>
<path id="path0_fill" d="M 24.5703 10.224C 24.6343 10.224 24.6903 10.25 24.7383 10.302L 25.2003 10.8C 24.8483 11.208 24.4203 11.526 23.9163 11.754C 23.4163 11.982 22.8103 12.096 22.0983 12.096C 21.4823 12.096 20.9223 11.99 20.4183 11.778C 19.9143 11.562 19.4843 11.262 19.1283 10.878C 18.7723 10.49 18.4963 10.026 18.3003 9.486C 18.1043 8.946 18.0063 8.352 18.0063 7.704C 18.0063 7.056 18.1083 6.462 18.3123 5.922C 18.5163 5.382 18.8023 4.918 19.1703 4.53C 19.5423 4.142 19.9863 3.842 20.5023 3.63C 21.0183 3.414 21.5883 3.306 22.2123 3.306C 22.8243 3.306 23.3643 3.404 23.8323 3.6C 24.3003 3.796 24.7123 4.062 25.0683 4.398L 24.6843 4.932C 24.6603 4.972 24.6283 5.006 24.5883 5.034C 24.5523 5.058 24.5023 5.07 24.4383 5.07C 24.3663 5.07 24.2783 5.032 24.1743 4.956C 24.0703 4.876 23.9343 4.788 23.7663 4.692C 23.5983 4.596 23.3883 4.51 23.1363 4.434C 22.8843 4.354 22.5743 4.314 22.2063 4.314C 21.7623 4.314 21.3563 4.392 20.9883 4.548C 20.6203 4.7 20.3023 4.922 20.0343 5.214C 19.7703 5.506 19.5643 5.862 19.4163 6.282C 19.2683 6.702 19.1943 7.176 19.1943 7.704C 19.1943 8.24 19.2703 8.718 19.4223 9.138C 19.5783 9.558 19.7883 9.914 20.0523 10.206C 20.3203 10.494 20.6343 10.714 20.9943 10.866C 21.3583 11.018 21.7503 11.094 22.1703 11.094C 22.4263 11.094 22.6563 11.08 22.8603 11.052C 23.0683 11.02 23.2583 10.972 23.4303 10.908C 23.6063 10.844 23.7683 10.764 23.9163 10.668C 24.0683 10.568 24.2183 10.45 24.3663 10.314C 24.4343 10.254 24.5023 10.224 24.5703 10.224ZM 27.802 3.162L 27.802 12L 26.734 12L 26.734 3.162L 27.802 3.162ZM 32.4239 5.826C 32.7879 5.826 33.1239 5.888 33.4319 6.012C 33.7439 6.132 34.0119 6.308 34.2359 6.54C 34.4639 6.768 34.6419 7.052 34.7699 7.392C 34.8979 7.728 34.9619 8.112 34.9619 8.544C 34.9619 8.712 34.9439 8.824 34.9079 8.88C 34.8719 8.936 34.8039 8.964 34.7039 8.964L 30.6419 8.964C 30.6499 9.348 30.7019 9.682 30.7979 9.966C 30.8939 10.25 31.0259 10.488 31.1939 10.68C 31.3619 10.868 31.5619 11.01 31.7939 11.106C 32.0259 11.198 32.2859 11.244 32.5739 11.244C 32.8419 11.244 33.0719 11.214 33.2639 11.154C 33.4599 11.09 33.6279 11.022 33.7679 10.95C 33.9079 10.878 34.0239 10.812 34.1159 10.752C 34.2119 10.688 34.2939 10.656 34.3619 10.656C 34.4499 10.656 34.5179 10.69 34.5659 10.758L 34.8659 11.148C 34.7339 11.308 34.5759 11.448 34.3919 11.568C 34.2079 11.684 34.0099 11.78 33.7979 11.856C 33.5899 11.932 33.3739 11.988 33.1499 12.024C 32.9259 12.064 32.7039 12.084 32.4839 12.084C 32.0639 12.084 31.6759 12.014 31.3199 11.874C 30.9679 11.73 30.6619 11.522 30.4019 11.25C 30.1459 10.974 29.9459 10.634 29.8019 10.23C 29.6579 9.826 29.5859 9.362 29.5859 8.838C 29.5859 8.414 29.6499 8.018 29.7779 7.65C 29.9099 7.282 30.0979 6.964 30.3419 6.696C 30.5859 6.424 30.8839 6.212 31.2359 6.06C 31.5879 5.904 31.9839 5.826 32.4239 5.826ZM 32.4479 6.612C 31.9319 6.612 31.5259 6.762 31.2299 7.062C 30.9339 7.358 30.7499 7.77 30.6779 8.298L 34.0019 8.298C 34.0019 8.05 33.9659 7.824 33.8939 7.62C 33.8259 7.412 33.7239 7.234 33.5879 7.086C 33.4559 6.934 33.2939 6.818 33.1019 6.738C 32.9099 6.654 32.6919 6.612 32.4479 6.612ZM 40.5377 12C 40.4337 12 40.3537 11.984 40.2977 11.952C 40.2417 11.916 40.1977 11.848 40.1657 11.748L 40.0457 11.178C 39.8857 11.322 39.7277 11.452 39.5717 11.568C 39.4197 11.68 39.2597 11.776 39.0917 11.856C 38.9277 11.932 38.7497 11.99 38.5577 12.03C 38.3697 12.074 38.1597 12.096 37.9277 12.096C 37.6917 12.096 37.4697 12.064 37.2617 12C 37.0537 11.932 36.8717 11.832 36.7157 11.7C 36.5637 11.568 36.4417 11.402 36.3497 11.202C 36.2617 10.998 36.2177 10.758 36.2177 10.482C 36.2177 10.242 36.2837 10.012 36.4157 9.792C 36.5477 9.568 36.7617 9.37 37.0577 9.198C 37.3537 9.026 37.7397 8.886 38.2157 8.778C 38.6917 8.666 39.2757 8.602 39.9677 8.586L 39.9677 8.112C 39.9677 7.64 39.8657 7.284 39.6617 7.044C 39.4577 6.8 39.1597 6.678 38.7677 6.678C 38.5037 6.678 38.2817 6.712 38.1017 6.78C 37.9257 6.844 37.7717 6.918 37.6397 7.002C 37.5117 7.082 37.3997 7.156 37.3037 7.224C 37.2117 7.288 37.1197 7.32 37.0277 7.32C 36.9557 7.32 36.8937 7.302 36.8417 7.266C 36.7897 7.226 36.7457 7.178 36.7097 7.122L 36.5177 6.78C 36.8537 6.456 37.2157 6.214 37.6037 6.054C 37.9917 5.894 38.4217 5.814 38.8937 5.814C 39.2337 5.814 39.5357 5.87 39.7997 5.982C 40.0637 6.094 40.2857 6.25 40.4657 6.45C 40.6457 6.65 40.7817 6.892 40.8737 7.176C 40.9657 7.46 41.0117 7.772 41.0117 8.112L 41.0117 12L 40.5377 12ZM 38.2457 11.346C 38.4337 11.346 38.6057 11.328 38.7617 11.292C 38.9177 11.252 39.0637 11.198 39.1997 11.13C 39.3397 11.058 39.4717 10.972 39.5957 10.872C 39.7237 10.768 39.8477 10.652 39.9677 10.524L 39.9677 9.264C 39.4757 9.28 39.0557 9.32 38.7077 9.384C 38.3637 9.444 38.0817 9.524 37.8617 9.624C 37.6457 9.724 37.4877 9.842 37.3877 9.978C 37.2917 10.114 37.2437 10.266 37.2437 10.434C 37.2437 10.594 37.2697 10.732 37.3217 10.848C 37.3737 10.964 37.4437 11.06 37.5317 11.136C 37.6237 11.208 37.7297 11.262 37.8497 11.298C 37.9737 11.33 38.1057 11.346 38.2457 11.346ZM 43.0386 12L 43.0386 5.922L 43.6506 5.922C 43.7666 5.922 43.8466 5.944 43.8906 5.988C 43.9346 6.032 43.9646 6.108 43.9806 6.216L 44.0466 7.14C 44.2386 6.724 44.4746 6.4 44.7546 6.168C 45.0386 5.932 45.3826 5.814 45.7866 5.814C 45.9146 5.814 46.0366 5.828 46.1526 5.856C 46.2726 5.884 46.3786 5.928 46.4706 5.988L 46.3926 6.786C 46.3686 6.886 46.3086 6.936 46.2126 6.936C 46.1566 6.936 46.0746 6.924 45.9666 6.9C 45.8586 6.876 45.7366 6.864 45.6006 6.864C 45.4086 6.864 45.2366 6.894 45.0846 6.954C 44.9326 7.01 44.7966 7.094 44.6766 7.206C 44.5606 7.314 44.4566 7.448 44.3646 7.608C 44.2726 7.768 44.1886 7.952 44.1126 8.16L 44.1126 12L 43.0386 12Z"/>
<path id="path1_stroke" d="M 1.00486e-14 1L 25.4558 1L 25.4558 -1L -1.00486e-14 -1L 1.00486e-14 1Z"/>
<path id="path2_stroke" d="M 2.00972e-14 1L 25.4558 1L 25.4558 -1L -2.00972e-14 -1L 2.00972e-14 1Z"/>
</defs>
</svg>
