<svg width="192" height="192" viewBox="0 0 192 192" version="1.1" xmlns="http://www.w3.org/2000/svg" xmlns:xlink="http://www.w3.org/1999/xlink">
<title>bt-double</title>
<desc>Created using Figma</desc>
<g id="Canvas" transform="matrix(3 0 0 3 -6732 -1656)">
<g id="bt-double">
<g id="Double">
<use xlink:href="#path0_fill" transform="translate(2244 592)" fill="#545454"/>
</g>
<g id="x2">
<use xlink:href="#path1_fill" transform="translate(2264 566)" fill="#545454"/>
</g>
</g>
</g>
<defs>
<path id="path0_fill" d="M 20.1312 7.704C 20.1312 8.348 20.0292 8.934 19.8252 9.462C 19.6212 9.99 19.3332 10.442 18.9612 10.818C 18.5892 11.194 18.1412 11.486 17.6172 11.694C 17.0972 11.898 16.5212 12 15.8892 12L 12.6792 12L 12.6792 3.402L 15.8892 3.402C 16.5212 3.402 17.0972 3.506 17.6172 3.714C 18.1412 3.918 18.5892 4.21 18.9612 4.59C 19.3332 4.966 19.6212 5.418 19.8252 5.946C 20.0292 6.474 20.1312 7.06 20.1312 7.704ZM 18.9372 7.704C 18.9372 7.176 18.8652 6.704 18.7212 6.288C 18.5772 5.872 18.3732 5.52 18.1092 5.232C 17.8452 4.944 17.5252 4.724 17.1492 4.572C 16.7732 4.42 16.3532 4.344 15.8892 4.344L 13.8432 4.344L 13.8432 11.058L 15.8892 11.058C 16.3532 11.058 16.7732 10.982 17.1492 10.83C 17.5252 10.678 17.8452 10.46 18.1092 10.176C 18.3732 9.888 18.5772 9.536 18.7212 9.12C 18.8652 8.704 18.9372 8.232 18.9372 7.704ZM 24.4361 5.826C 24.8801 5.826 25.2801 5.9 25.6361 6.048C 25.9921 6.196 26.2961 6.406 26.5481 6.678C 26.8001 6.95 26.9921 7.28 27.1241 7.668C 27.2601 8.052 27.3281 8.482 27.3281 8.958C 27.3281 9.438 27.2601 9.87 27.1241 10.254C 26.9921 10.638 26.8001 10.966 26.5481 11.238C 26.2961 11.51 25.9921 11.72 25.6361 11.868C 25.2801 12.012 24.8801 12.084 24.4361 12.084C 23.9881 12.084 23.5841 12.012 23.2241 11.868C 22.8681 11.72 22.5641 11.51 22.3121 11.238C 22.0601 10.966 21.8661 10.638 21.7301 10.254C 21.5981 9.87 21.5321 9.438 21.5321 8.958C 21.5321 8.482 21.5981 8.052 21.7301 7.668C 21.8661 7.28 22.0601 6.95 22.3121 6.678C 22.5641 6.406 22.8681 6.196 23.2241 6.048C 23.5841 5.9 23.9881 5.826 24.4361 5.826ZM 24.4361 11.25C 25.0361 11.25 25.4841 11.05 25.7801 10.65C 26.0761 10.246 26.2241 9.684 26.2241 8.964C 26.2241 8.24 26.0761 7.676 25.7801 7.272C 25.4841 6.868 25.0361 6.666 24.4361 6.666C 24.1321 6.666 23.8661 6.718 23.6381 6.822C 23.4141 6.926 23.2261 7.076 23.0741 7.272C 22.9261 7.468 22.8141 7.71 22.7381 7.998C 22.6661 8.282 22.6301 8.604 22.6301 8.964C 22.6301 9.684 22.7781 10.246 23.0741 10.65C 23.3741 11.05 23.8281 11.25 24.4361 11.25ZM 30.0907 5.922L 30.0907 9.798C 30.0907 10.258 30.1947 10.614 30.4027 10.866C 30.6147 11.118 30.9367 11.244 31.3687 11.244C 31.6807 11.244 31.9747 11.17 32.2507 11.022C 32.5267 10.874 32.7807 10.668 33.0127 10.404L 33.0127 5.922L 34.0807 5.922L 34.0807 12L 33.4447 12C 33.2927 12 33.1967 11.926 33.1567 11.778L 33.0727 11.124C 32.8087 11.416 32.5127 11.652 32.1847 11.832C 31.8567 12.008 31.4807 12.096 31.0567 12.096C 30.7247 12.096 30.4307 12.042 30.1747 11.934C 29.9227 11.822 29.7107 11.666 29.5387 11.466C 29.3667 11.266 29.2367 11.024 29.1487 10.74C 29.0647 10.456 29.0227 10.142 29.0227 9.798L 29.0227 5.922L 30.0907 5.922ZM 36.1741 12L 36.1741 3.162L 37.2481 3.162L 37.2481 6.804C 37.5001 6.504 37.7881 6.266 38.1121 6.09C 38.4361 5.914 38.8081 5.826 39.2281 5.826C 39.5841 5.826 39.9041 5.894 40.1881 6.03C 40.4761 6.166 40.7201 6.364 40.9201 6.624C 41.1201 6.88 41.2721 7.192 41.3761 7.56C 41.4841 7.928 41.5381 8.342 41.5381 8.802C 41.5381 9.294 41.4781 9.742 41.3581 10.146C 41.2381 10.55 41.0641 10.896 40.8361 11.184C 40.6121 11.468 40.3381 11.69 40.0141 11.85C 39.6901 12.006 39.3261 12.084 38.9221 12.084C 38.5221 12.084 38.1841 12.01 37.9081 11.862C 37.6361 11.71 37.3981 11.496 37.1941 11.22L 37.1401 11.772C 37.1081 11.924 37.0161 12 36.8641 12L 36.1741 12ZM 38.8741 6.678C 38.5261 6.678 38.2221 6.758 37.9621 6.918C 37.7021 7.078 37.4641 7.304 37.2481 7.596L 37.2481 10.536C 37.4441 10.8 37.6581 10.986 37.8901 11.094C 38.1261 11.202 38.3841 11.256 38.6641 11.256C 39.2361 11.256 39.6741 11.054 39.9781 10.65C 40.2821 10.246 40.4341 9.644 40.4341 8.844C 40.4341 8.1 40.2981 7.554 40.0261 7.206C 39.7581 6.854 39.3741 6.678 38.8741 6.678ZM 44.393 3.162L 44.393 12L 43.325 12L 43.325 3.162L 44.393 3.162ZM 49.0149 5.826C 49.3789 5.826 49.7149 5.888 50.0229 6.012C 50.3349 6.132 50.6029 6.308 50.8269 6.54C 51.0549 6.768 51.2329 7.052 51.3609 7.392C 51.4889 7.728 51.5529 8.112 51.5529 8.544C 51.5529 8.712 51.5349 8.824 51.4989 8.88C 51.4629 8.936 51.3949 8.964 51.2949 8.964L 47.2329 8.964C 47.2409 9.348 47.2929 9.682 47.3889 9.966C 47.4849 10.25 47.6169 10.488 47.7849 10.68C 47.9529 10.868 48.1529 11.01 48.3849 11.106C 48.6169 11.198 48.8769 11.244 49.1649 11.244C 49.4329 11.244 49.6629 11.214 49.8549 11.154C 50.0509 11.09 50.2189 11.022 50.3589 10.95C 50.4989 10.878 50.6149 10.812 50.7069 10.752C 50.8029 10.688 50.8849 10.656 50.9529 10.656C 51.0409 10.656 51.1089 10.69 51.1569 10.758L 51.4569 11.148C 51.3249 11.308 51.1669 11.448 50.9829 11.568C 50.7989 11.684 50.6009 11.78 50.3889 11.856C 50.1809 11.932 49.9649 11.988 49.7409 12.024C 49.5169 12.064 49.2949 12.084 49.0749 12.084C 48.6549 12.084 48.2669 12.014 47.9109 11.874C 47.5589 11.73 47.2529 11.522 46.9929 11.25C 46.7369 10.974 46.5369 10.634 46.3929 10.23C 46.2489 9.826 46.1769 9.362 46.1769 8.838C 46.1769 8.414 46.2409 8.018 46.3689 7.65C 46.5009 7.282 46.6889 6.964 46.9329 6.696C 47.1769 6.424 47.4749 6.212 47.8269 6.06C 48.1789 5.904 48.5749 5.826 49.0149 5.826ZM 49.0389 6.612C 48.5229 6.612 48.1169 6.762 47.8209 7.062C 47.5249 7.358 47.3409 7.77 47.2689 8.298L 50.5929 8.298C 50.5929 8.05 50.5569 7.824 50.4849 7.62C 50.4169 7.412 50.3149 7.234 50.1789 7.086C 50.0469 6.934 49.8849 6.818 49.6929 6.738C 49.5009 6.654 49.2829 6.612 49.0389 6.612Z"/>
<path id="path1_fill" d="M 10.0645 18L 12.0325 18L 8.67253 9.336L 11.8165 1.2L 10.0645 1.2L 7.44853 7.92L 4.85653 1.2L 2.91253 1.2L 6.08053 9.336L 2.69653 18L 4.47253 18L 7.28053 10.752L 10.0645 18ZM 17.3022 1.032C 14.7102 1.032 13.5342 2.736 13.5342 5.304L 13.5342 6.672L 15.2862 6.672L 15.2862 5.184C 15.2862 3.696 15.8862 2.712 17.2542 2.712C 18.6462 2.712 19.2222 3.624 19.2222 5.352C 19.2222 10.08 13.5342 11.136 13.5342 16.56L 13.5342 18L 20.9022 18L 20.9022 16.296L 15.3822 16.296L 15.3822 16.032C 15.4062 12.168 21.0942 10.344 21.0942 5.28C 21.0942 2.712 19.9182 1.032 17.3022 1.032Z"/>
</defs>
</svg>
