<svg width="120" height="60" viewBox="0 0 120 60" version="1.1" xmlns="http://www.w3.org/2000/svg" xmlns:xlink="http://www.w3.org/1999/xlink">
<title>WIN icon</title>
<desc>Created using Figma</desc>
<g id="Canvas" transform="matrix(3 0 0 3 -8517 -858)">
<g id="WIN icon">
<g id="Combined Shape">
<mask id="mask0_outline_ins">
<use xlink:href="#path0_fill" fill="white" transform="translate(2839 286)"/>
</mask>
<g mask="url(#mask0_outline_ins)">
<use xlink:href="#path1_stroke_2x" transform="translate(2839 286)" fill="#FFCD27"/>
</g>
</g>
<g id="Vector">
<use xlink:href="#path2_fill" transform="translate(2843.38 292.125)" fill="#FFCD27"/>
<use xlink:href="#path3_fill" transform="translate(2843.38 292.125)" fill="#FFCD27"/>
<use xlink:href="#path4_fill" transform="translate(2843.38 292.125)" fill="#FFCD27"/>
<use xlink:href="#path5_fill" transform="translate(2843.38 292.125)" fill="#FFCD27"/>
<use xlink:href="#path6_fill" transform="translate(2843.38 292.125)" fill="#FFCD27"/>
</g>
</g>
</g>
<defs>
<path id="path0_fill" fill-rule="evenodd" d="M 40 5.74796C 37.1887 5.02438 34.9756 2.81122 34.252 0L 5.74805 0C 5.02441 2.81122 2.81128 5.02438 0 5.74796L 0 14.252C 2.81128 14.9756 5.02441 17.1888 5.74805 20L 34.252 20C 34.9756 17.1888 37.1887 14.9756 40 14.252L 40 5.74796Z"/>
<path id="path1_stroke_2x" d="M 34.252 0L 35.2204 -0.249283L 35.0271 -1L 34.252 -1L 34.252 0ZM 40 5.74796L 41 5.74796L 41 4.97275L 40.2493 4.77952L 40 5.74796ZM 5.74805 0L 5.74805 -1L 4.97286 -1L 4.77962 -0.249283L 5.74805 0ZM 0 5.74796L -0.249258 4.77952L -1 4.97275L -1 5.74796L 0 5.74796ZM 0 14.252L -1 14.252L -1 15.0273L -0.249258 15.2205L 0 14.252ZM 5.74805 20L 4.77962 20.2493L 4.97286 21L 5.74805 21L 5.74805 20ZM 34.252 20L 34.252 21L 35.0271 21L 35.2204 20.2493L 34.252 20ZM 40 14.252L 40.2493 15.2205L 41 15.0273L 41 14.252L 40 14.252ZM 33.2835 0.249283C 34.098 3.41332 36.5866 5.90201 39.7507 6.71639L 40.2493 4.77952C 37.7908 4.14676 35.8532 2.20912 35.2204 -0.249283L 33.2835 0.249283ZM 5.74805 1L 34.252 1L 34.252 -1L 5.74805 -1L 5.74805 1ZM 0.249258 6.71639C 3.41338 5.90201 5.90203 3.41332 6.71648 0.249283L 4.77962 -0.249283C 4.1468 2.20912 2.20918 4.14676 -0.249258 4.77952L 0.249258 6.71639ZM 1 14.252L 1 5.74796L -1 5.74796L -1 14.252L 1 14.252ZM 6.71648 19.7507C 5.90203 16.5867 3.41338 14.098 0.249258 13.2836L -0.249258 15.2205C 2.20918 15.8532 4.1468 17.7909 4.77962 20.2493L 6.71648 19.7507ZM 34.252 19L 5.74805 19L 5.74805 21L 34.252 21L 34.252 19ZM 39.7507 13.2836C 36.5866 14.098 34.098 16.5867 33.2835 19.7507L 35.2204 20.2493C 35.8532 17.7909 37.7908 15.8532 40.2493 15.2205L 39.7507 13.2836ZM 39 5.74796L 39 14.252L 41 14.252L 41 5.74796L 39 5.74796Z"/>
<path id="path2_fill" d="M 6.93711 5.99159L 7.1071 7.14543L 7.35602 6.10577L 9.10457 0L 10.0881 0L 11.7942 6.10577L 12.037 7.16346L 12.2252 5.98558L 13.5973 0L 14.7691 0L 12.6259 8.75L 11.5635 8.75L 9.74206 2.3738L 9.60242 1.70673L 9.46278 2.3738L 7.57459 8.75L 6.51211 8.75L 4.375 0L 5.54069 0L 6.93711 5.99159Z"/>
<path id="path3_fill" d="M 17.319 8.75L 16.1533 8.75L 16.1533 0L 17.319 0L 17.319 8.75Z"/>
<path id="path4_fill" d="M 26.2499 8.75L 25.0781 8.75L 20.6279 2.00722L 20.6279 8.75L 19.4561 8.75L 19.4561 0L 20.6279 0L 25.0903 6.77283L 25.0903 0L 26.2499 0L 26.2499 8.75Z"/>
<path id="path5_fill" d="M 1.75 4.375C 1.75 4.85824 1.35825 5.25 0.875 5.25C 0.391751 5.25 0 4.85824 0 4.375C 0 3.89175 0.391751 3.5 0.875 3.5C 1.35825 3.5 1.75 3.89175 1.75 4.375Z"/>
<path id="path6_fill" d="M 30.625 4.375C 30.625 4.85824 30.2332 5.25 29.75 5.25C 29.2668 5.25 28.875 4.85824 28.875 4.375C 28.875 3.89175 29.2668 3.5 29.75 3.5C 30.2332 3.5 30.625 3.89175 30.625 4.375Z"/>
</defs>
</svg>
