<svg width="40" height="40" viewBox="0 0 40 40" version="1.1" xmlns="http://www.w3.org/2000/svg" xmlns:xlink="http://www.w3.org/1999/xlink">
<title>icon-bet</title>
<desc>Created using Figma</desc>
<g id="Canvas" transform="matrix(2 0 0 2 -4048 -572)">
<g id="icon-bet">
<g id="shape">
<use xlink:href="#path0_fill" transform="translate(2029 288.857)" fill="#FFFFFF"/>
</g>
<g id="border">
<mask id="mask0_outline_ins">
<use xlink:href="#path1_fill" fill="white" transform="translate(2024 286)"/>
</mask>
<g mask="url(#mask0_outline_ins)">
<use xlink:href="#path2_stroke_2x" transform="translate(2024 286)" fill="#FFFFFF"/>
</g>
</g>
</g>
</g>
<defs>
<path id="path0_fill" d="M 9.26022 5.7255C 8.65603 4.98039 7.93855 4.31372 7.25884 3.64706C 6.23927 2.62745 5.29522 1.52941 4.99312 0L 4.99312 0.0392158C 4.80432 0.82353 4.16236 2.07843 3.48265 2.78431C 2.87846 3.41176 2.23651 4.03922 1.63232 4.66667C 1.10365 5.21569 0.537224 5.76471 0.235129 6.50981C -0.255776 7.68628 0.0463186 8.86274 0.914842 9.56867C 1.78337 10.2353 2.95398 10.1569 3.89803 9.37255C 4.23789 9.09804 4.50222 8.7451 4.80432 8.35294C 4.84208 10 4.23789 11.3333 3.21832 12.1176C 2.80294 12.4313 1.78337 12.8628 0.763795 13.0589L 0.763795 13.3333L 4.99312 13.3333L 9.22246 13.3333L 9.22246 13.0196C 9.18469 13.0196 8.61826 12.902 7.63646 12.5882C 6.05046 12.0392 5.03089 10.1176 5.2197 8.35294C 5.59732 8.86274 6.0127 9.37255 6.57912 9.68629C 7.48541 10.1961 8.50498 10.0785 9.22246 9.45098C 9.29798 9.41176 9.33574 9.33333 9.41126 9.2549C 9.6756 8.98039 9.86441 8.62745 9.93993 8.19608C 10.1287 7.29411 9.86441 6.47059 9.26022 5.7255Z"/>
<path id="path1_fill" d="M 20 10C 20 15.5228 15.5228 20 10 20C 4.47715 20 0 15.5228 0 10C 0 4.47715 4.47715 0 10 0C 15.5228 0 20 4.47715 20 10Z"/>
<path id="path2_stroke_2x" d="M 19 10C 19 14.9706 14.9706 19 10 19L 10 21C 16.0751 21 21 16.0751 21 10L 19 10ZM 10 19C 5.02944 19 1 14.9706 1 10L -1 10C -1 16.0751 3.92487 21 10 21L 10 19ZM 1 10C 1 5.02944 5.02944 1 10 1L 10 -1C 3.92487 -1 -1 3.92487 -1 10L 1 10ZM 10 1C 14.9706 1 19 5.02944 19 10L 21 10C 21 3.92487 16.0751 -1 10 -1L 10 1Z"/>
</defs>
</svg>
