<svg width="192" height="192" viewBox="0 0 192 192" version="1.1" xmlns="http://www.w3.org/2000/svg" xmlns:xlink="http://www.w3.org/1999/xlink">
<title>bt-rebet</title>
<desc>Created using Figma</desc>
<g id="Canvas" transform="matrix(3 0 0 3 -6501 -1656)">
<g id="bt-rebet">
<g id="Rebet">
<use xlink:href="#path0_fill" transform="translate(2167 592)" fill="#545454"/>
</g>
<g id="icon">
<g id="Mask Group">
<mask id="mask0_alpha" mask-type="alpha">
<g id="Vector">
<use xlink:href="#path1_fill" transform="translate(2188 565)" fill="#C4C4C4"/>
<use xlink:href="#path2_fill" transform="translate(2188 565)" fill="#C4C4C4"/>
</g>
</mask>
<g id="Ellipse" mask="url(#mask0_alpha)">
<use xlink:href="#path3_stroke" transform="translate(2189 566)" fill="#545454"/>
</g>
</g>
<g id="Vector">
<use xlink:href="#path4_fill" transform="translate(2194 563)" fill="#545454"/>
</g>
<g id="Vector">
<use xlink:href="#path4_fill" transform="matrix(-1 0 0 1 2204 583)" fill="#545454"/>
</g>
</g>
</g>
</g>
<defs>
<path id="path0_fill" d="M 17.8693 8.412L 17.8693 12L 16.7113 12L 16.7113 3.402L 19.1413 3.402C 19.6853 3.402 20.1553 3.458 20.5513 3.57C 20.9473 3.678 21.2733 3.836 21.5293 4.044C 21.7893 4.252 21.9813 4.504 22.1053 4.8C 22.2293 5.092 22.2913 5.42 22.2913 5.784C 22.2913 6.088 22.2433 6.372 22.1473 6.636C 22.0513 6.9 21.9113 7.138 21.7273 7.35C 21.5473 7.558 21.3253 7.738 21.0613 7.89C 20.8013 8.038 20.5053 8.148 20.1733 8.22C 20.3253 8.316 20.4533 8.438 20.5573 8.586L 23.0653 12L 22.0333 12C 21.8213 12 21.6653 11.918 21.5653 11.754L 19.3333 8.682C 19.2653 8.586 19.1913 8.518 19.1113 8.478C 19.0353 8.434 18.9153 8.412 18.7513 8.412L 17.8693 8.412ZM 17.8693 7.566L 19.0933 7.566C 19.4293 7.566 19.7253 7.526 19.9813 7.446C 20.2413 7.362 20.4573 7.246 20.6293 7.098C 20.8053 6.946 20.9373 6.766 21.0253 6.558C 21.1133 6.35 21.1573 6.12 21.1573 5.868C 21.1573 5.356 20.9893 4.97 20.6533 4.71C 20.3173 4.45 19.8133 4.32 19.1413 4.32L 17.8693 4.32L 17.8693 7.566ZM 26.486 5.826C 26.85 5.826 27.186 5.888 27.494 6.012C 27.806 6.132 28.074 6.308 28.298 6.54C 28.526 6.768 28.704 7.052 28.832 7.392C 28.96 7.728 29.024 8.112 29.024 8.544C 29.024 8.712 29.006 8.824 28.97 8.88C 28.934 8.936 28.866 8.964 28.766 8.964L 24.704 8.964C 24.712 9.348 24.764 9.682 24.86 9.966C 24.956 10.25 25.088 10.488 25.256 10.68C 25.424 10.868 25.624 11.01 25.856 11.106C 26.088 11.198 26.348 11.244 26.636 11.244C 26.904 11.244 27.134 11.214 27.326 11.154C 27.522 11.09 27.69 11.022 27.83 10.95C 27.97 10.878 28.086 10.812 28.178 10.752C 28.274 10.688 28.356 10.656 28.424 10.656C 28.512 10.656 28.58 10.69 28.628 10.758L 28.928 11.148C 28.796 11.308 28.638 11.448 28.454 11.568C 28.27 11.684 28.072 11.78 27.86 11.856C 27.652 11.932 27.436 11.988 27.212 12.024C 26.988 12.064 26.766 12.084 26.546 12.084C 26.126 12.084 25.738 12.014 25.382 11.874C 25.03 11.73 24.724 11.522 24.464 11.25C 24.208 10.974 24.008 10.634 23.864 10.23C 23.72 9.826 23.648 9.362 23.648 8.838C 23.648 8.414 23.712 8.018 23.84 7.65C 23.972 7.282 24.16 6.964 24.404 6.696C 24.648 6.424 24.946 6.212 25.298 6.06C 25.65 5.904 26.046 5.826 26.486 5.826ZM 26.51 6.612C 25.994 6.612 25.588 6.762 25.292 7.062C 24.996 7.358 24.812 7.77 24.74 8.298L 28.064 8.298C 28.064 8.05 28.028 7.824 27.956 7.62C 27.888 7.412 27.786 7.234 27.65 7.086C 27.518 6.934 27.356 6.818 27.164 6.738C 26.972 6.654 26.754 6.612 26.51 6.612ZM 30.7358 12L 30.7358 3.162L 31.8098 3.162L 31.8098 6.804C 32.0618 6.504 32.3498 6.266 32.6738 6.09C 32.9978 5.914 33.3698 5.826 33.7898 5.826C 34.1458 5.826 34.4658 5.894 34.7498 6.03C 35.0378 6.166 35.2818 6.364 35.4818 6.624C 35.6818 6.88 35.8338 7.192 35.9378 7.56C 36.0458 7.928 36.0998 8.342 36.0998 8.802C 36.0998 9.294 36.0398 9.742 35.9198 10.146C 35.7998 10.55 35.6258 10.896 35.3978 11.184C 35.1738 11.468 34.8998 11.69 34.5758 11.85C 34.2518 12.006 33.8878 12.084 33.4838 12.084C 33.0838 12.084 32.7458 12.01 32.4698 11.862C 32.1978 11.71 31.9598 11.496 31.7558 11.22L 31.7018 11.772C 31.6698 11.924 31.5778 12 31.4258 12L 30.7358 12ZM 33.4358 6.678C 33.0878 6.678 32.7838 6.758 32.5238 6.918C 32.2638 7.078 32.0258 7.304 31.8098 7.596L 31.8098 10.536C 32.0058 10.8 32.2198 10.986 32.4518 11.094C 32.6878 11.202 32.9458 11.256 33.2258 11.256C 33.7978 11.256 34.2358 11.054 34.5398 10.65C 34.8438 10.246 34.9958 9.644 34.9958 8.844C 34.9958 8.1 34.8598 7.554 34.5878 7.206C 34.3198 6.854 33.9358 6.678 33.4358 6.678ZM 40.3407 5.826C 40.7047 5.826 41.0407 5.888 41.3487 6.012C 41.6607 6.132 41.9287 6.308 42.1527 6.54C 42.3807 6.768 42.5587 7.052 42.6867 7.392C 42.8147 7.728 42.8787 8.112 42.8787 8.544C 42.8787 8.712 42.8607 8.824 42.8247 8.88C 42.7887 8.936 42.7207 8.964 42.6207 8.964L 38.5587 8.964C 38.5667 9.348 38.6187 9.682 38.7147 9.966C 38.8107 10.25 38.9427 10.488 39.1107 10.68C 39.2787 10.868 39.4787 11.01 39.7107 11.106C 39.9427 11.198 40.2027 11.244 40.4907 11.244C 40.7587 11.244 40.9887 11.214 41.1807 11.154C 41.3767 11.09 41.5447 11.022 41.6847 10.95C 41.8247 10.878 41.9407 10.812 42.0327 10.752C 42.1287 10.688 42.2107 10.656 42.2787 10.656C 42.3667 10.656 42.4347 10.69 42.4827 10.758L 42.7827 11.148C 42.6507 11.308 42.4927 11.448 42.3087 11.568C 42.1247 11.684 41.9267 11.78 41.7147 11.856C 41.5067 11.932 41.2907 11.988 41.0667 12.024C 40.8427 12.064 40.6207 12.084 40.4007 12.084C 39.9807 12.084 39.5927 12.014 39.2367 11.874C 38.8847 11.73 38.5787 11.522 38.3187 11.25C 38.0627 10.974 37.8627 10.634 37.7187 10.23C 37.5747 9.826 37.5027 9.362 37.5027 8.838C 37.5027 8.414 37.5667 8.018 37.6947 7.65C 37.8267 7.282 38.0147 6.964 38.2587 6.696C 38.5027 6.424 38.8007 6.212 39.1527 6.06C 39.5047 5.904 39.9007 5.826 40.3407 5.826ZM 40.3647 6.612C 39.8487 6.612 39.4427 6.762 39.1467 7.062C 38.8507 7.358 38.6667 7.77 38.5947 8.298L 41.9187 8.298C 41.9187 8.05 41.8827 7.824 41.8107 7.62C 41.7427 7.412 41.6407 7.234 41.5047 7.086C 41.3727 6.934 41.2107 6.818 41.0187 6.738C 40.8267 6.654 40.6087 6.612 40.3647 6.612ZM 46.3979 12.096C 45.9179 12.096 45.5479 11.962 45.2879 11.694C 45.0319 11.426 44.9039 11.04 44.9039 10.536L 44.9039 6.816L 44.1719 6.816C 44.1079 6.816 44.0539 6.798 44.0099 6.762C 43.9659 6.722 43.9439 6.662 43.9439 6.582L 43.9439 6.156L 44.9399 6.03L 45.1859 4.152C 45.1979 4.092 45.2239 4.044 45.2639 4.008C 45.3079 3.968 45.3639 3.948 45.4319 3.948L 45.9719 3.948L 45.9719 6.042L 47.7299 6.042L 47.7299 6.816L 45.9719 6.816L 45.9719 10.464C 45.9719 10.72 46.0339 10.91 46.1579 11.034C 46.2819 11.158 46.4419 11.22 46.6379 11.22C 46.7499 11.22 46.8459 11.206 46.9259 11.178C 47.0099 11.146 47.0819 11.112 47.1419 11.076C 47.2019 11.04 47.2519 11.008 47.2919 10.98C 47.3359 10.948 47.3739 10.932 47.4059 10.932C 47.4619 10.932 47.5119 10.966 47.5559 11.034L 47.8679 11.544C 47.6839 11.716 47.4619 11.852 47.2019 11.952C 46.9419 12.048 46.6739 12.096 46.3979 12.096Z"/>
<path id="path1_fill" d="M 11 0L 22 0L 22 11L 11 11L 11 0Z"/>
<path id="path2_fill" d="M 0 11L 11 11L 11 22L 0 22L 0 11Z"/>
<path id="path3_stroke" d="M 19 10C 19 14.9706 14.9706 19 10 19L 10 21C 16.0751 21 21 16.0751 21 10L 19 10ZM 10 19C 5.02944 19 1 14.9706 1 10L -1 10C -1 16.0751 3.92487 21 10 21L 10 19ZM 1 10C 1 5.02944 5.02944 1 10 1L 10 -1C 3.92487 -1 -1 3.92487 -1 10L 1 10ZM 10 1C 14.9706 1 19 5.02944 19 10L 21 10C 21 3.92487 16.0751 -1 10 -1L 10 1Z"/>
<path id="path4_fill" d="M 5 0L 5 6L 0 3L 5 0Z"/>
</defs>
</svg>
