<svg width="192" height="192" viewBox="0 0 192 192" version="1.1" xmlns="http://www.w3.org/2000/svg" xmlns:xlink="http://www.w3.org/1999/xlink">
<title>bt-undo</title>
<desc>Created using Figma</desc>
<g id="Canvas" transform="matrix(3 0 0 3 -6273 -1656)">
<g id="bt-undo">
<g id="Undo">
<use xlink:href="#path0_fill" transform="translate(2091 592)" fill="#545454"/>
</g>
<g id="icon">
<g id="Mask Group">
<mask id="mask0_alpha" mask-type="alpha">
<g id="Vector 2">
<use xlink:href="#path1_fill" transform="translate(2112 565)"/>
</g>
</mask>
<g id="Ellipse" mask="url(#mask0_alpha)">
<use xlink:href="#path2_stroke" transform="translate(2113 566)" fill="#545454"/>
</g>
</g>
<g id="Vector">
<use xlink:href="#path3_fill" transform="translate(2118 563)" fill="#545454"/>
</g>
</g>
</g>
</g>
<defs>
<path id="path0_fill" d="M 21.1844 11.076C 21.5404 11.076 21.8584 11.016 22.1384 10.896C 22.4184 10.776 22.6544 10.608 22.8464 10.392C 23.0424 10.176 23.1904 9.918 23.2904 9.618C 23.3944 9.318 23.4464 8.988 23.4464 8.628L 23.4464 3.402L 24.6044 3.402L 24.6044 8.628C 24.6044 9.124 24.5244 9.584 24.3644 10.008C 24.2084 10.432 23.9824 10.8 23.6864 11.112C 23.3944 11.42 23.0364 11.662 22.6124 11.838C 22.1884 12.014 21.7124 12.102 21.1844 12.102C 20.6564 12.102 20.1804 12.014 19.7564 11.838C 19.3324 11.662 18.9724 11.42 18.6764 11.112C 18.3804 10.8 18.1524 10.432 17.9924 10.008C 17.8364 9.584 17.7584 9.124 17.7584 8.628L 17.7584 3.402L 18.9164 3.402L 18.9164 8.622C 18.9164 8.982 18.9664 9.312 19.0664 9.612C 19.1704 9.912 19.3184 10.17 19.5104 10.386C 19.7064 10.602 19.9444 10.772 20.2244 10.896C 20.5084 11.016 20.8284 11.076 21.1844 11.076ZM 26.6628 12L 26.6628 5.922L 27.3048 5.922C 27.4568 5.922 27.5508 5.996 27.5868 6.144L 27.6708 6.804C 27.9348 6.512 28.2308 6.276 28.5588 6.096C 28.8868 5.916 29.2648 5.826 29.6928 5.826C 30.0248 5.826 30.3168 5.882 30.5688 5.994C 30.8248 6.102 31.0368 6.258 31.2048 6.462C 31.3768 6.662 31.5068 6.904 31.5948 7.188C 31.6828 7.472 31.7268 7.786 31.7268 8.13L 31.7268 12L 30.6528 12L 30.6528 8.13C 30.6528 7.67 30.5468 7.314 30.3348 7.062C 30.1268 6.806 29.8088 6.678 29.3808 6.678C 29.0608 6.678 28.7628 6.754 28.4868 6.906C 28.2148 7.058 27.9648 7.264 27.7368 7.524L 27.7368 12L 26.6628 12ZM 38.1462 12C 37.9942 12 37.8982 11.926 37.8582 11.778L 37.7622 11.04C 37.5022 11.356 37.2042 11.61 36.8682 11.802C 36.5362 11.99 36.1542 12.084 35.7222 12.084C 35.3742 12.084 35.0582 12.018 34.7742 11.886C 34.4902 11.75 34.2482 11.552 34.0482 11.292C 33.8482 11.032 33.6942 10.708 33.5862 10.32C 33.4782 9.932 33.4242 9.486 33.4242 8.982C 33.4242 8.534 33.4842 8.118 33.6042 7.734C 33.7242 7.346 33.8962 7.01 34.1202 6.726C 34.3442 6.442 34.6182 6.22 34.9422 6.06C 35.2702 5.896 35.6382 5.814 36.0462 5.814C 36.4182 5.814 36.7362 5.878 37.0002 6.006C 37.2682 6.13 37.5062 6.306 37.7142 6.534L 37.7142 3.162L 38.7822 3.162L 38.7822 12L 38.1462 12ZM 36.0702 11.22C 36.4222 11.22 36.7282 11.14 36.9882 10.98C 37.2522 10.82 37.4942 10.594 37.7142 10.302L 37.7142 7.368C 37.5142 7.104 37.2982 6.918 37.0662 6.81C 36.8342 6.702 36.5742 6.648 36.2862 6.648C 35.7222 6.648 35.2882 6.85 34.9842 7.254C 34.6802 7.658 34.5282 8.234 34.5282 8.982C 34.5282 9.378 34.5622 9.718 34.6302 10.002C 34.6982 10.282 34.7982 10.514 34.9302 10.698C 35.0622 10.878 35.2242 11.01 35.4162 11.094C 35.6082 11.178 35.8262 11.22 36.0702 11.22ZM 43.431 5.826C 43.875 5.826 44.275 5.9 44.631 6.048C 44.987 6.196 45.291 6.406 45.543 6.678C 45.795 6.95 45.987 7.28 46.119 7.668C 46.255 8.052 46.323 8.482 46.323 8.958C 46.323 9.438 46.255 9.87 46.119 10.254C 45.987 10.638 45.795 10.966 45.543 11.238C 45.291 11.51 44.987 11.72 44.631 11.868C 44.275 12.012 43.875 12.084 43.431 12.084C 42.983 12.084 42.579 12.012 42.219 11.868C 41.863 11.72 41.559 11.51 41.307 11.238C 41.055 10.966 40.861 10.638 40.725 10.254C 40.593 9.87 40.527 9.438 40.527 8.958C 40.527 8.482 40.593 8.052 40.725 7.668C 40.861 7.28 41.055 6.95 41.307 6.678C 41.559 6.406 41.863 6.196 42.219 6.048C 42.579 5.9 42.983 5.826 43.431 5.826ZM 43.431 11.25C 44.031 11.25 44.479 11.05 44.775 10.65C 45.071 10.246 45.219 9.684 45.219 8.964C 45.219 8.24 45.071 7.676 44.775 7.272C 44.479 6.868 44.031 6.666 43.431 6.666C 43.127 6.666 42.861 6.718 42.633 6.822C 42.409 6.926 42.221 7.076 42.069 7.272C 41.921 7.468 41.809 7.71 41.733 7.998C 41.661 8.282 41.625 8.604 41.625 8.964C 41.625 9.684 41.773 10.246 42.069 10.65C 42.369 11.05 42.823 11.25 43.431 11.25Z"/>
<path id="path1_fill" d="M 11 0L 11 11L 0 11L 0 22L 22 22L 22 0L 11 0Z"/>
<path id="path2_stroke" d="M 19 10C 19 14.9706 14.9706 19 10 19L 10 21C 16.0751 21 21 16.0751 21 10L 19 10ZM 10 19C 5.02944 19 1 14.9706 1 10L -1 10C -1 16.0751 3.92487 21 10 21L 10 19ZM 1 10C 1 5.02944 5.02944 1 10 1L 10 -1C 3.92487 -1 -1 3.92487 -1 10L 1 10ZM 10 1C 14.9706 1 19 5.02944 19 10L 21 10C 21 3.92487 16.0751 -1 10 -1L 10 1Z"/>
<path id="path3_fill" d="M 5 0L 5 6L 0 3L 5 0Z"/>
</defs>
</svg>
