<svg xmlns="http://www.w3.org/2000/svg" xmlns:xlink="http://www.w3.org/1999/xlink" viewBox="0 0 36 36"><defs><style>.cls-1,.cls-5{fill:none;}.cls-2{clip-path:url(#clip-path);}.cls-3{fill:#3a3a40;}.cls-4{clip-path:url(#clip-path-2);}.cls-5{stroke:#3a3a40;stroke-miterlimit:10;stroke-width:4px;}</style><clipPath id="clip-path"><path class="cls-1" d="M26,18.35c0-2.3-1.94-3.42-3.67-4.41h0c-.38-.22-.73-.42-1-.63a8.82,8.82,0,0,1-3-3.11.29.29,0,0,0-.54,0,7.89,7.89,0,0,1-3,3.08c-.27.16-.55.32-.88.51-1.73,1-3.88,2.16-3.87,4.55a4,4,0,0,0,4,4.3,4.58,4.58,0,0,0,3.31-1.47c-.38,1.6-1.54,3.6-4.85,4.36a.25.25,0,0,0-.2.27.27.27,0,0,0,.28.21h11a.26.26,0,0,0,.28-.24.25.25,0,0,0-.21-.24,7.17,7.17,0,0,1-4.66-4.28,4.74,4.74,0,0,0,3.2,1.28A3.83,3.83,0,0,0,26,18.35Z"/></clipPath><clipPath id="clip-path-2"><circle class="cls-1" cx="18" cy="18" r="16"/></clipPath></defs><title>head</title><g id="Слой_2" data-name="Слой 2"><g id="Layer_1" data-name="Layer 1"><g class="cls-2"><rect class="cls-3" width="36" height="36"/></g><g class="cls-4"><circle class="cls-5" cx="18" cy="18" r="16"/></g></g></g></svg>