<svg xmlns="http://www.w3.org/2000/svg" viewBox="0 0 60 60"><defs><style>.cls-1{opacity:0.5;}.cls-2{fill:#272425;}.cls-3{opacity:0.2;}.cls-4{fill:#fff;}.cls-5{fill:none;stroke:#fff;stroke-miterlimit:10;stroke-width:2px;}</style></defs><title>refresh_disabled</title><g id="Слой_2" data-name="Слой 2"><g id="Слой_1-2" data-name="Слой 1"><g class="cls-1"><circle class="cls-2" cx="30" cy="30" r="30"/></g><g class="cls-3"><path class="cls-4" d="M30,3.19A26.81,26.81,0,1,1,3.19,30,26.84,26.84,0,0,1,30,3.19m0-1.07A27.88,27.88,0,1,0,57.88,30,27.88,27.88,0,0,0,30,2.12Z"/><path class="cls-5" d="M30,41.12A11.22,11.22,0,0,0,41.31,30"/><path class="cls-5" d="M30,41.12A11.22,11.22,0,0,1,18.69,30"/><path class="cls-5" d="M30,18.88A11.22,11.22,0,0,1,41.31,30"/><polygon class="cls-4" points="31.17 22.87 24.26 18.88 31.17 14.89 31.17 22.87"/></g></g></g></svg>