<svg xmlns="http://www.w3.org/2000/svg" xmlns:xlink="http://www.w3.org/1999/xlink" viewBox="0 0 67.93 59.38"><defs><style>.cls-1{fill:none;}.cls-2{isolation:isolate;}.cls-3{clip-path:url(#clip-path);}.cls-4{fill:#222;}.cls-5{clip-path:url(#clip-path-2);}.cls-6{clip-path:url(#clip-path-3);}.cls-7{fill:#1b1b1b;}.cls-8{clip-path:url(#clip-path-4);}.cls-9{clip-path:url(#clip-path-5);}.cls-10{clip-path:url(#clip-path-6);}.cls-11{clip-path:url(#clip-path-7);}.cls-12{fill:#111;}.cls-13{clip-path:url(#clip-path-8);}.cls-14{fill:#484848;}.cls-15{clip-path:url(#clip-path-9);}.cls-16{fill:#393939;}.cls-17{fill:#242424;}.cls-18{clip-path:url(#clip-path-10);}</style><clipPath id="clip-path"><path class="cls-1" d="M58.93,27.91l-.25,4.67q0-.17,0-.33t0-.33q0-.17,0-.33t0-.33a16.93,16.93,0,0,0-2.14-7.74,20.69,20.69,0,0,0-5.38-6.22,25.89,25.89,0,0,0-7.78-4.15,30.2,30.2,0,0,0-18.86,0,25.9,25.9,0,0,0-7.78,4.15,20.69,20.69,0,0,0-5.38,6.22,16.93,16.93,0,0,0-2.14,7.74q0,.17,0,.33t0,.33q0,.17,0,.33t0,.33L9,27.91q0-.17,0-.33t0-.33q0-.17,0-.33t0-.34a16.94,16.94,0,0,1,2.16-7.78,20.82,20.82,0,0,1,5.43-6.25,26.2,26.2,0,0,1,7.86-4.16,30.65,30.65,0,0,1,19,0,26.2,26.2,0,0,1,7.86,4.16,20.82,20.82,0,0,1,5.43,6.25,16.94,16.94,0,0,1,2.16,7.78q0,.17,0,.34t0,.33q0,.17,0,.33T58.93,27.91Z"/></clipPath><clipPath id="clip-path-2"><path class="cls-1" d="M6.09,18.2l-.27-4.73A28.81,28.81,0,0,1,11,8.22a33.65,33.65,0,0,1,6.64-4,37.59,37.59,0,0,1,7.74-2.57A40.38,40.38,0,0,1,34,.72a39.74,39.74,0,0,1,12.49,2A34.74,34.74,0,0,1,56.8,8.15,27.68,27.68,0,0,1,64,16.34,22.39,22.39,0,0,1,67,26.58q0,.29,0,.58t0,.58q0,.29,0,.58t0,.58l-.33,4.66q0-.29,0-.57t0-.58q0-.29,0-.58t0-.58a22.37,22.37,0,0,0-2.91-10.19,27.5,27.5,0,0,0-7.14-8.16A34.34,34.34,0,0,0,46.34,7.48,39.16,39.16,0,0,0,34,5.51a39.78,39.78,0,0,0-8.48.9A37.08,37.08,0,0,0,17.83,9a33.28,33.28,0,0,0-6.57,4A28.6,28.6,0,0,0,6.09,18.2Z"/></clipPath><clipPath id="clip-path-3"><path class="cls-1" d="M65.8,28.74l-.32,4.66q0-.27,0-.54t0-.54q0-.27,0-.54t0-.54a21.6,21.6,0,0,0-2.8-9.84,26.55,26.55,0,0,0-6.89-7.89,33.16,33.16,0,0,0-9.9-5.24A38.41,38.41,0,0,0,22,8.27a33.16,33.16,0,0,0-9.91,5.24,26.55,26.55,0,0,0-6.89,7.89,21.6,21.6,0,0,0-2.8,9.84q0,.27,0,.54t0,.54q0,.27,0,.54t0,.54l-.32-4.66q0-.27,0-.54t0-.54q0-.27,0-.54t0-.54a21.62,21.62,0,0,1,2.83-9.89,26.72,26.72,0,0,1,7-7.92,33.56,33.56,0,0,1,10-5.27A39,39,0,0,1,46,3.5,33.55,33.55,0,0,1,56,8.76a26.72,26.72,0,0,1,7,7.92,21.62,21.62,0,0,1,2.83,9.89q0,.27,0,.54t0,.54q0,.27,0,.54T65.8,28.74Z"/></clipPath><clipPath id="clip-path-4"><path class="cls-1" d="M1.3,31.25q0,.29,0,.58t0,.58q0,.29,0,.58t0,.57L1,28.9q0-.29,0-.58t0-.58q0-.29,0-.58t0-.58A21.79,21.79,0,0,1,1.4,23a22.25,22.25,0,0,1,1-3.39,23.5,23.5,0,0,1,1.49-3.19,25.35,25.35,0,0,1,2-3l.27,4.73a25.24,25.24,0,0,0-1.93,3,23.45,23.45,0,0,0-1.47,3.18,22.24,22.24,0,0,0-1,3.37A21.79,21.79,0,0,0,1.3,31.25Z"/></clipPath><clipPath id="clip-path-5"><path class="cls-1" d="M10.57,49.17a27.22,27.22,0,0,1-3.22-3.42,24.4,24.4,0,0,1-2.48-3.82,22.2,22.2,0,0,1-1.66-4.14,21,21,0,0,1-.77-4.38l-.32-4.66a21,21,0,0,0,.78,4.4,22.23,22.23,0,0,0,1.67,4.16,24.5,24.5,0,0,0,2.5,3.84,27.41,27.41,0,0,0,3.26,3.44Z"/></clipPath><clipPath id="clip-path-6"><path class="cls-1" d="M10.57,49.17l-.24-4.59.18.16.18.15.18.15.18.15.23,4.58-.18-.15-.18-.15-.18-.15Z"/></clipPath><clipPath id="clip-path-7"><path class="cls-1" d="M58.93,27.91l-.25,4.67A16.94,16.94,0,0,1,56.49,40a20.74,20.74,0,0,1-5.31,6.11,25.86,25.86,0,0,1-7.75,4.14,30.21,30.21,0,0,1-18.93,0,25.86,25.86,0,0,1-7.76-4.14A20.74,20.74,0,0,1,11.44,40a16.94,16.94,0,0,1-2.19-7.42L9,27.91a17,17,0,0,0,2.21,7.46,20.87,20.87,0,0,0,5.36,6.14,26.16,26.16,0,0,0,7.83,4.16,30.66,30.66,0,0,0,19.12,0,26.16,26.16,0,0,0,7.83-4.16,20.87,20.87,0,0,0,5.36-6.14A17,17,0,0,0,58.93,27.91Z"/></clipPath><clipPath id="clip-path-8"><path class="cls-1" d="M11.28,49.78,11,45.2a31.37,31.37,0,0,0,4.74,3.26,34.63,34.63,0,0,0,5.49,2.48,37.26,37.26,0,0,0,6.11,1.57,39.29,39.29,0,0,0,6.58.55A38.37,38.37,0,0,0,46.1,51.13a33.47,33.47,0,0,0,10-5.26,26.81,26.81,0,0,0,6.85-7.74,21.69,21.69,0,0,0,2.9-9.38l-.32,4.66a21.67,21.67,0,0,1-2.87,9.34,26.65,26.65,0,0,1-6.78,7.7A33.09,33.09,0,0,1,46,55.68a37.81,37.81,0,0,1-12,1.93,38.7,38.7,0,0,1-6.51-.55,36.74,36.74,0,0,1-6-1.56A34.21,34.21,0,0,1,16,53,31.06,31.06,0,0,1,11.28,49.78Z"/></clipPath><clipPath id="clip-path-9"><path class="cls-1" d="M66.92,28.9l-.33,4.66a22.45,22.45,0,0,1-3,9.64,27.61,27.61,0,0,1-7,8,34.26,34.26,0,0,1-10.2,5.41,39.77,39.77,0,0,1-24.84,0,34.28,34.28,0,0,1-10.2-5.41,27.61,27.61,0,0,1-7-8,22.44,22.44,0,0,1-3-9.64L1,28.9a22.46,22.46,0,0,0,3,9.69,27.79,27.79,0,0,0,7.09,8A34.68,34.68,0,0,0,21.42,52a40.37,40.37,0,0,0,25.1,0,34.66,34.66,0,0,0,10.3-5.44,27.78,27.78,0,0,0,7.09-8A22.47,22.47,0,0,0,66.92,28.9Z"/></clipPath><clipPath id="clip-path-10"><path class="cls-1" d="M67.87,29l-.34,4.66a23.13,23.13,0,0,1-3.08,9.91,28.36,28.36,0,0,1-7.22,8.17,35.21,35.21,0,0,1-10.49,5.55,41.06,41.06,0,0,1-25.56,0A35.22,35.22,0,0,1,10.7,51.79a28.35,28.35,0,0,1-7.22-8.17A23.13,23.13,0,0,1,.39,33.71c0-.07,0-.16,0-.23L.23,31.39.06,29A23.15,23.15,0,0,0,3.17,39a28.53,28.53,0,0,0,7.29,8.21,35.63,35.63,0,0,0,10.6,5.58,41.67,41.67,0,0,0,25.82,0,35.62,35.62,0,0,0,10.59-5.58A28.53,28.53,0,0,0,64.76,39,23.16,23.16,0,0,0,67.87,29Z"/></clipPath></defs><title>black_angle</title><g id="Слой_2" data-name="Слой 2"><g id="Слой_1-2" data-name="Слой 1"><g class="cls-2"><g class="cls-2"><g class="cls-3"><g class="cls-2"><path class="cls-4" d="M58.93,27.91l-.25,4.67q0-.17,0-.33t0-.33q0-.17,0-.33t0-.33a16.93,16.93,0,0,0-2.14-7.74,20.69,20.69,0,0,0-5.38-6.22,25.89,25.89,0,0,0-7.78-4.15,30.2,30.2,0,0,0-18.86,0,25.9,25.9,0,0,0-7.78,4.15,20.69,20.69,0,0,0-5.38,6.22,16.93,16.93,0,0,0-2.14,7.74q0,.17,0,.33t0,.33q0,.17,0,.33t0,.33L9,27.91q0-.17,0-.33t0-.33q0-.17,0-.33t0-.34a16.94,16.94,0,0,1,2.16-7.78,20.82,20.82,0,0,1,5.43-6.25,26.2,26.2,0,0,1,7.86-4.16,30.65,30.65,0,0,1,19,0,26.2,26.2,0,0,1,7.86,4.16,20.82,20.82,0,0,1,5.43,6.25,16.94,16.94,0,0,1,2.16,7.78q0,.17,0,.34t0,.33q0,.17,0,.33t0,.33"/></g></g></g><g class="cls-2"><g class="cls-5"><g class="cls-2"><path class="cls-4" d="M66.92,28.9l-.33,4.66q0-.29,0-.57t0-.58q0-.29,0-.58t0-.58a22.37,22.37,0,0,0-2.91-10.19,27.5,27.5,0,0,0-7.14-8.16A34.34,34.34,0,0,0,46.34,7.48a39.76,39.76,0,0,0-24.73,0A34.36,34.36,0,0,0,11.35,12.9a27.51,27.51,0,0,0-7.14,8.16A22.37,22.37,0,0,0,1.3,31.25q0,.29,0,.58t0,.58q0,.29,0,.58t0,.57L1,28.9q0-.29,0-.58t0-.58q0-.29,0-.58t0-.58A22.39,22.39,0,0,1,3.92,16.34a27.68,27.68,0,0,1,7.21-8.19A34.76,34.76,0,0,1,21.48,2.7a40.36,40.36,0,0,1,25,0A34.74,34.74,0,0,1,56.8,8.15,27.68,27.68,0,0,1,64,16.34,22.39,22.39,0,0,1,67,26.58q0,.29,0,.58t0,.58q0,.29,0,.58t0,.58"/></g></g></g><g class="cls-2"><g class="cls-6"><g class="cls-2"><path class="cls-7" d="M65.8,28.74l-.32,4.66q0-.27,0-.54t0-.54q0-.27,0-.54t0-.54a21.6,21.6,0,0,0-2.8-9.84,26.55,26.55,0,0,0-6.89-7.89,33.16,33.16,0,0,0-9.9-5.24A38.41,38.41,0,0,0,22,8.27a33.16,33.16,0,0,0-9.91,5.24,26.55,26.55,0,0,0-6.89,7.89,21.6,21.6,0,0,0-2.8,9.84q0,.27,0,.54t0,.54q0,.27,0,.54t0,.54l-.32-4.66q0-.27,0-.54t0-.54q0-.27,0-.54t0-.54a21.62,21.62,0,0,1,2.83-9.89,26.72,26.72,0,0,1,7-7.92,33.56,33.56,0,0,1,10-5.27A39,39,0,0,1,46,3.5,33.55,33.55,0,0,1,56,8.76a26.72,26.72,0,0,1,7,7.92,21.62,21.62,0,0,1,2.83,9.89q0,.27,0,.54t0,.54q0,.27,0,.54t0,.54"/></g></g></g><g class="cls-2"><g class="cls-8"><g class="cls-2"><path class="cls-4" d="M66.92,28.9l-.33,4.66q0-.29,0-.57t0-.58q0-.29,0-.58t0-.58a22.37,22.37,0,0,0-2.91-10.19,27.5,27.5,0,0,0-7.14-8.16A34.34,34.34,0,0,0,46.34,7.48a39.76,39.76,0,0,0-24.73,0A34.36,34.36,0,0,0,11.35,12.9a27.51,27.51,0,0,0-7.14,8.16A22.37,22.37,0,0,0,1.3,31.25q0,.29,0,.58t0,.58q0,.29,0,.58t0,.57L1,28.9q0-.29,0-.58t0-.58q0-.29,0-.58t0-.58A22.39,22.39,0,0,1,3.92,16.34a27.68,27.68,0,0,1,7.21-8.19A34.76,34.76,0,0,1,21.48,2.7a40.36,40.36,0,0,1,25,0A34.74,34.74,0,0,1,56.8,8.15,27.68,27.68,0,0,1,64,16.34,22.39,22.39,0,0,1,67,26.58q0,.29,0,.58t0,.58q0,.29,0,.58t0,.58"/></g></g></g><g class="cls-2"><g class="cls-9"><g class="cls-2"><path class="cls-4" d="M65.8,28.74l-.32,4.66a21.67,21.67,0,0,1-2.87,9.34,26.65,26.65,0,0,1-6.78,7.7A33.09,33.09,0,0,1,46,55.68a38.42,38.42,0,0,1-24,0,33.1,33.1,0,0,1-9.86-5.23,26.65,26.65,0,0,1-6.78-7.7,21.67,21.67,0,0,1-2.87-9.34l-.32-4.66A21.69,21.69,0,0,0,5,38.13a26.81,26.81,0,0,0,6.85,7.74,33.48,33.48,0,0,0,10,5.26,39,39,0,0,0,24.26,0,33.47,33.47,0,0,0,10-5.26,26.81,26.81,0,0,0,6.85-7.74,21.69,21.69,0,0,0,2.9-9.38"/></g></g></g><g class="cls-2"><g class="cls-10"><g class="cls-2"><path class="cls-4" d="M65.8,28.74l-.32,4.66a21.67,21.67,0,0,1-2.87,9.34,26.65,26.65,0,0,1-6.78,7.7A33.09,33.09,0,0,1,46,55.68a38.42,38.42,0,0,1-24,0,33.1,33.1,0,0,1-9.86-5.23,26.65,26.65,0,0,1-6.78-7.7,21.67,21.67,0,0,1-2.87-9.34l-.32-4.66A21.69,21.69,0,0,0,5,38.13a26.81,26.81,0,0,0,6.85,7.74,33.48,33.48,0,0,0,10,5.26,39,39,0,0,0,24.26,0,33.47,33.47,0,0,0,10-5.26,26.81,26.81,0,0,0,6.85-7.74,21.69,21.69,0,0,0,2.9-9.38"/></g></g></g><g class="cls-2"><g class="cls-11"><g class="cls-2"><path class="cls-12" d="M58.93,27.91l-.25,4.67A16.94,16.94,0,0,1,56.49,40a20.74,20.74,0,0,1-5.31,6.11,25.86,25.86,0,0,1-7.75,4.14,30.21,30.21,0,0,1-18.93,0,25.86,25.86,0,0,1-7.76-4.14A20.74,20.74,0,0,1,11.44,40a16.94,16.94,0,0,1-2.19-7.42L9,27.91a17,17,0,0,0,2.21,7.46,20.87,20.87,0,0,0,5.36,6.14,26.16,26.16,0,0,0,7.83,4.16,30.66,30.66,0,0,0,19.12,0,26.16,26.16,0,0,0,7.83-4.16,20.87,20.87,0,0,0,5.36-6.14,17,17,0,0,0,2.21-7.46"/></g></g></g><g class="cls-2"><g class="cls-13"><g class="cls-2"><path class="cls-4" d="M65.8,28.74l-.32,4.66a21.67,21.67,0,0,1-2.87,9.34,26.65,26.65,0,0,1-6.78,7.7A33.09,33.09,0,0,1,46,55.68a38.42,38.42,0,0,1-24,0,33.1,33.1,0,0,1-9.86-5.23,26.65,26.65,0,0,1-6.78-7.7,21.67,21.67,0,0,1-2.87-9.34l-.32-4.66A21.69,21.69,0,0,0,5,38.13a26.81,26.81,0,0,0,6.85,7.74,33.48,33.48,0,0,0,10,5.26,39,39,0,0,0,24.26,0,33.47,33.47,0,0,0,10-5.26,26.81,26.81,0,0,0,6.85-7.74,21.69,21.69,0,0,0,2.9-9.38"/></g></g></g><path class="cls-14" d="M34,1.58A38.38,38.38,0,0,1,46,3.5,33.55,33.55,0,0,1,56,8.76a26.72,26.72,0,0,1,7,7.92,21.62,21.62,0,0,1,2.83,9.89,21.26,21.26,0,0,1-2.17,10.11A25.93,25.93,0,0,1,57,45.13,33,33,0,0,1,46.7,50.92a38.93,38.93,0,0,1-25.47,0A33,33,0,0,1,11,45.13a25.93,25.93,0,0,1-6.7-8.44A21.26,21.26,0,0,1,2.09,26.58a21.62,21.62,0,0,1,2.83-9.89,26.72,26.72,0,0,1,7-7.92,33.56,33.56,0,0,1,10-5.27A38.41,38.41,0,0,1,34,1.58Zm0,45.61a30.07,30.07,0,0,0,9.93-1.65,25.84,25.84,0,0,0,8-4.48,20.34,20.34,0,0,0,5.27-6.57,16.71,16.71,0,0,0,1.76-7.91,16.94,16.94,0,0,0-2.16-7.78,20.82,20.82,0,0,0-5.43-6.25,26.2,26.2,0,0,0-7.86-4.16,30.65,30.65,0,0,0-19,0,26.2,26.2,0,0,0-7.86,4.16,20.82,20.82,0,0,0-5.43,6.25A16.94,16.94,0,0,0,9,26.58a16.71,16.71,0,0,0,1.76,7.91A20.33,20.33,0,0,0,16,41.06a25.85,25.85,0,0,0,8,4.48A30.1,30.1,0,0,0,34,47.19"/><g class="cls-2"><g class="cls-15"><g class="cls-2"><path class="cls-7" d="M66.92,28.9l-.33,4.66a22.45,22.45,0,0,1-3,9.64,27.61,27.61,0,0,1-7,8,34.26,34.26,0,0,1-10.2,5.41,39.77,39.77,0,0,1-24.84,0,34.28,34.28,0,0,1-10.2-5.41,27.61,27.61,0,0,1-7-8,22.44,22.44,0,0,1-3-9.64L1,28.9a22.46,22.46,0,0,0,3,9.69,27.79,27.79,0,0,0,7.09,8A34.68,34.68,0,0,0,21.42,52a40.37,40.37,0,0,0,25.1,0,34.66,34.66,0,0,0,10.3-5.44,27.78,27.78,0,0,0,7.09-8,22.47,22.47,0,0,0,3-9.69"/></g></g></g><path class="cls-14" d="M34,0A41,41,0,0,1,46.82,2,35.7,35.7,0,0,1,57.46,7.62,28.43,28.43,0,0,1,64.87,16a23.09,23.09,0,0,1,3,10.54,22.69,22.69,0,0,1-2.29,10.79,27.54,27.54,0,0,1-7.12,9,35,35,0,0,1-10.94,6.18,41.59,41.59,0,0,1-27.2,0A35,35,0,0,1,9.43,46.38a27.54,27.54,0,0,1-7.12-9A22.69,22.69,0,0,1,0,26.58,23.09,23.09,0,0,1,3.06,16a28.43,28.43,0,0,1,7.42-8.42A35.71,35.71,0,0,1,21.12,2,41,41,0,0,1,34,0Zm0,54A39.62,39.62,0,0,0,47.16,51.8a34.12,34.12,0,0,0,10.63-6,26.83,26.83,0,0,0,6.93-8.75A22,22,0,0,0,67,26.58,22.39,22.39,0,0,0,64,16.34,27.68,27.68,0,0,0,56.8,8.15,34.74,34.74,0,0,0,46.46,2.7a40.36,40.36,0,0,0-25,0A34.76,34.76,0,0,0,11.13,8.15a27.68,27.68,0,0,0-7.21,8.19A22.39,22.39,0,0,0,1,26.58,22,22,0,0,0,3.21,37.05a26.84,26.84,0,0,0,6.93,8.75,34.14,34.14,0,0,0,10.63,6A39.63,39.63,0,0,0,34,54"/><path class="cls-16" d="M34,.72a39.74,39.74,0,0,1,12.49,2A34.74,34.74,0,0,1,56.8,8.15,27.68,27.68,0,0,1,64,16.34,22.39,22.39,0,0,1,67,26.58a22,22,0,0,1-2.24,10.48,26.83,26.83,0,0,1-6.93,8.75,34.12,34.12,0,0,1-10.63,6,40.29,40.29,0,0,1-26.39,0,34.14,34.14,0,0,1-10.63-6,26.84,26.84,0,0,1-6.93-8.75A22,22,0,0,1,1,26.58,22.39,22.39,0,0,1,3.92,16.34a27.68,27.68,0,0,1,7.21-8.19A34.76,34.76,0,0,1,21.48,2.7,39.75,39.75,0,0,1,34,.72Zm0,52.34A38.27,38.27,0,0,0,46.7,50.92,33,33,0,0,0,57,45.13a25.93,25.93,0,0,0,6.7-8.44,21.26,21.26,0,0,0,2.17-10.11A21.62,21.62,0,0,0,63,16.69a26.72,26.72,0,0,0-7-7.92A33.55,33.55,0,0,0,46,3.5a39,39,0,0,0-24.15,0,33.56,33.56,0,0,0-10,5.27,26.72,26.72,0,0,0-7,7.92,21.62,21.62,0,0,0-2.83,9.89A21.26,21.26,0,0,0,4.27,36.69,25.93,25.93,0,0,0,11,45.13a33,33,0,0,0,10.26,5.79A38.29,38.29,0,0,0,34,53.06"/><path class="cls-17" d="M34,6.87a30.14,30.14,0,0,1,9.52,1.52,26.2,26.2,0,0,1,7.86,4.16,20.82,20.82,0,0,1,5.43,6.25,16.94,16.94,0,0,1,2.16,7.78,16.71,16.71,0,0,1-1.76,7.91,20.34,20.34,0,0,1-5.27,6.57,25.84,25.84,0,0,1-8,4.48,30.61,30.61,0,0,1-19.86,0,25.85,25.85,0,0,1-8-4.48,20.33,20.33,0,0,1-5.27-6.57A16.71,16.71,0,0,1,9,26.58a16.94,16.94,0,0,1,2.16-7.78,20.82,20.82,0,0,1,5.43-6.25,26.2,26.2,0,0,1,7.86-4.16A30.17,30.17,0,0,1,34,6.87Z"/><g class="cls-2"><g class="cls-18"><g class="cls-2"><path class="cls-4" d="M67.87,29l-.34,4.66a23.14,23.14,0,0,1-3.08,9.91,28.36,28.36,0,0,1-7.22,8.17,35.21,35.21,0,0,1-10.49,5.55,41.06,41.06,0,0,1-25.56,0A35.22,35.22,0,0,1,10.7,51.79a28.35,28.35,0,0,1-7.22-8.17A23.13,23.13,0,0,1,.39,33.71L.06,29A23.15,23.15,0,0,0,3.17,39a28.53,28.53,0,0,0,7.29,8.21,35.63,35.63,0,0,0,10.6,5.58,41.67,41.67,0,0,0,25.82,0,35.62,35.62,0,0,0,10.59-5.58A28.53,28.53,0,0,0,64.76,39a23.16,23.16,0,0,0,3.11-10"/></g></g></g></g></g></g></svg>