<svg xmlns="http://www.w3.org/2000/svg" xmlns:xlink="http://www.w3.org/1999/xlink" viewBox="0 0 147.6 147.6"><defs><style>.cls-1,.cls-4{fill:none;}.cls-2{clip-path:url(#clip-path);}.cls-3{fill:#595a5c;}.cls-4{stroke:#595a5c;stroke-miterlimit:10;stroke-width:6.4px;}.cls-5{clip-path:url(#clip-path-2);}</style><clipPath id="clip-path"><path class="cls-1" d="M73.8,10a63.8,63.8,0,1,0,45.11,18.69A63.8,63.8,0,0,0,73.8,10Zm0,1.75a62,62,0,1,1-62,62A62,62,0,0,1,73.8,11.75Z"/></clipPath><clipPath id="clip-path-2"><polygon class="cls-1" points="76.36 57.09 61.22 48.35 76.36 39.61 76.36 57.09"/></clipPath></defs><title>reload</title><g id="Слой_2" data-name="Слой 2"><g id="Layer_1" data-name="Layer 1"><g class="cls-2"><rect class="cls-3" width="147.6" height="147.6"/></g><path class="cls-4" d="M73.8,99.25A25.67,25.67,0,0,0,99.69,73.82"/><path class="cls-4" d="M73.8,99.25A25.67,25.67,0,0,1,47.92,73.82"/><path class="cls-4" d="M73.8,48.35A25.67,25.67,0,0,1,99.69,73.77"/><g class="cls-5"><rect class="cls-3" x="51.22" y="29.61" width="35.14" height="37.48"/></g></g></g></svg>