<svg xmlns="http://www.w3.org/2000/svg" xmlns:xlink="http://www.w3.org/1999/xlink" viewBox="0 0 82 82"><defs><style>.cls-1,.cls-8{fill:none;}.cls-2{opacity:0.9;isolation:isolate;}.cls-3{clip-path:url(#clip-path);}.cls-4{clip-path:url(#clip-path-2);}.cls-5{clip-path:url(#clip-path-3);}.cls-6{fill:#fff;}.cls-7{clip-path:url(#clip-path-4);}.cls-8{stroke:#fff;stroke-miterlimit:10;stroke-width:2px;opacity:0.5;}</style><clipPath id="clip-path"><rect class="cls-1" x="18" y="20" width="46" height="42"/></clipPath><clipPath id="clip-path-2"><path class="cls-1" d="M57.52,40l5.76-5.76a.79.79,0,1,0-1.12-1.12l-5.76,5.76-5.76-5.76a.79.79,0,1,0-1.12,1.12L55.29,40l-5.76,5.76a.79.79,0,0,0,1.12,1.12l5.76-5.76,5.76,5.76a.79.79,0,0,0,1.12-1.12Z"/></clipPath><clipPath id="clip-path-3"><rect class="cls-1" x="17" y="21" width="48" height="42"/></clipPath><clipPath id="clip-path-4"><path class="cls-1" d="M42.82,58.51a1,1,0,0,1-.5.89.9.9,0,0,1-.87,0L29.79,48.63v-4a.87.87,0,1,0-1.74,0v3.5H20.24V33.26h7.82v3.5a.87.87,0,1,0,1.74,0v-4l11.64-9.93a.9.9,0,0,1,.88,0,1,1,0,0,1,.5.89Zm.35-37.16a2.61,2.61,0,0,0-2.68,0l-.11.08-11.77,10H19.37a.87.87,0,0,0-.87.88V49a.87.87,0,0,0,.87.88h9.22L40.35,60.78l.14.11a2.61,2.61,0,0,0,2.68,0,2.74,2.74,0,0,0,1.39-2.41V23.77A2.74,2.74,0,0,0,43.17,21.35Z"/></clipPath></defs><title>sound</title><g id="Слой_2" data-name="Слой 2"><g id="Layer_1" data-name="Layer 1"><g class="cls-2"><g class="cls-3"><g class="cls-4"><g class="cls-5"><rect class="cls-6" x="39.3" y="22.85" width="34.21" height="34.21"/></g></g><g class="cls-7"><g class="cls-5"><rect class="cls-6" x="8.5" y="11" width="46.06" height="60.28"/></g></g></g></g><circle class="cls-8" cx="41" cy="41" r="40"/></g></g></svg>